<svg xmlns="http://www.w3.org/2000/svg" viewBox="0 0 800 800">
    <path fill="lime"
          d="M510.54,15.5C375.31-23.24,223.67,10.64,117.15,117.15-29.51,263.82-38.47,496.03,90.27,653.15l425.7-425.7c-42.27-63.81-44.09-146.52-5.43-211.95ZM156.76,332.1c-39.05-39.05-39.05-102.37,0-141.42,39.05-39.05,102.37-39.05,141.42,0,39.05,39.05,39.05,102.37,0,141.42-39.05,39.05-102.37,39.05-141.42,0Z"/>
    <path fill="yellow"
          d="M784.49,289.45c-65.43,38.66-148.14,36.84-211.95-5.43l-425.7,425.7c157.12,128.74,389.34,119.78,536-26.88,106.52-106.52,140.4-258.16,101.65-393.39ZM467.89,643.23c-39.05-39.05-39.05-102.37,0-141.42,39.05-39.05,102.37-39.05,141.42,0,39.05,39.05,39.05,102.37,0,141.42-39.05,39.05-102.37,39.05-141.42,0Z"/>
</svg>